Coordinates
version=1
nRows=5
nColumns=40
inDegrees=yes

Units are S.I. units (second, meters, Newtons, ...)
Angles are in degrees.

endheader
time	pelvis_tilt	pelvis_list	pelvis_rotation	pelvis_tx	pelvis_ty	pelvis_tz	hip_flexion_r	hip_adduction_r	hip_rotation_r	knee_angle_r	knee_angle_r_beta	ankle_angle_r	subtalar_angle_r	mtp_angle_r	hip_flexion_l	hip_adduction_l	hip_rotation_l	knee_angle_l	knee_angle_l_beta	ankle_angle_l	subtalar_angle_l	mtp_angle_l	lumbar_extension	lumbar_bending	lumbar_rotation	arm_flex_r	arm_add_r	arm_rot_r	elbow_flex_r	pro_sup_r	wrist_flex_r	wrist_dev_r	arm_flex_l	arm_add_l	arm_rot_l	elbow_flex_l	pro_sup_l	wrist_flex_l	wrist_dev_l
     14.10750000	     -3.72508893	     -4.06819394	      4.20640228	      1.01460980	      0.93254503	      0.50825879	      7.20799690	      3.06174810	    -17.90231293	     13.37334739	     13.37334739	     11.47522494	      1.16486310	     -4.69239660	     31.79570580	    -13.37037066	     -1.69707852	     40.95393700	     40.95393700	      9.62039400	    -16.98066714	      9.43049248	     -9.67232952	      5.27156573	      2.24231191	     23.06383138	    -20.40899073	      1.03979628	     60.72464704	     45.05134264	      0.00000000	      0.00000000	      0.92780923	     -7.94562707	     -9.36771948	     26.14949953	     46.12978556	      0.00000000	      0.00000000
     14.12071429	     -3.90527063	     -4.13440241	      4.59354635	      1.01353020	      0.93208399	      0.50822697	      6.83663526	      3.21210970	    -18.27972815	     12.84303507	     12.84303507	     11.41169425	      1.34217878	     -5.23117135	     32.15994560	    -13.12014632	     -1.90820455	     37.40236151	     37.40236151	      9.13368493	    -16.62398720	      9.17790993	     -9.66333997	      5.37003342	      2.68038453	     23.02339647	    -21.21671881	      0.51865166	     64.65276076	     44.95493333	      0.00000000	      0.00000000	      0.08573017	     -7.75956162	     -7.94559702	     26.04556936	     45.85658676	      0.00000000	      0.00000000
     14.13392857	     -4.02469153	     -4.11304065	      4.90141672	      1.01250500	      0.93169861	      0.50811555	      6.50157640	      3.25714130	    -18.41631841	     12.54375206	     12.54375206	     11.57514724	      1.27824638	     -5.31344143	     32.30909301	    -12.77543028	     -2.18976740	     33.82652116	     33.82652116	      8.88302622	    -15.82169681	      9.74155358	     -9.62397845	      5.34351349	      2.77797137	     24.14485252	    -21.37053439	      0.18325170	     65.68333332	     44.94129235	      0.00000000	      0.00000000	     -0.77916177	     -7.51851878	     -7.64545218	     25.70376379	     45.78831377	      0.00000000	      0.00000000
     14.14714286	     -4.07010083	     -4.20433054	      5.22838821	      1.01158067	      0.93128771	      0.50782078	      6.01393545	      3.43107166	    -18.69613717	     12.09674380	     12.09674380	     11.68152425	      1.46115731	     -5.46321618	     32.35646137	    -12.47972223	     -2.26481074	     30.36329540	     30.36329540	      8.46134742	    -14.88032490	     10.10755155	     -9.68892402	      5.48141958	      2.66031447	     25.18019887	    -21.33702442	     -0.24047920	     67.49802952	     44.90675698	      0.00000000	      0.00000000	     -1.78439645	     -7.29499141	     -7.09576460	     25.51756239	     45.67067583	      0.00000000	      0.00000000
     14.16035714	     -4.14250883	     -4.33249680	      5.49287057	      1.01086412	      0.93065877	      0.50748482	      5.53040468	      3.64446141	    -19.00982181	     11.61062512	     11.61062512	     11.64864159	      1.68685686	     -6.14591516	     32.34144478	    -12.25815784	     -2.45047856	     26.99898568	     26.99898568	      7.40087536	    -13.81348287	      8.85696273	     -9.69460553	      5.67706691	      3.56093412	     24.91148449	    -21.82539678	     -2.08841557	     70.90993761	     44.96716529	      0.00000000	      0.00000000	     -2.85041885	     -7.90828228	      0.18760881	     26.54726311	     44.48279618	      0.00000000	      0.00000000
